<svg xmlns="http://www.w3.org/2000/svg" width="200" height="48" viewBox="0 0 200 48" fill="none"><g clip-path="url(#clip0_2093_1060)"><path d="M47.8242 11.9951H54.6122L62.6282 25.226V11.9951H69.0762V35.9891H62.2882L54.2722 22.7582V35.9891H47.8242V11.9951Z" fill="white"></path><path d="M172.164 11.9951H181.34L186.082 26.701L190.824 11.9951H200V35.9891H193.552V21.1466L188.538 35.9891H183.626L178.612 21.1466V35.9891H172.164V11.9951Z" fill="white"></path><path d="M93.6251 18.2V11.9966H72.3711V21.564H77.3451C77.6851 21.564 77.8511 21.98 77.6071 22.2171L72.3731 27.2551V35.9906H93.6271V29.7871H78.8211V27.2551H90.9491V21.0516H78.8211V18.2021H93.6271L93.6251 18.2Z" fill="white"></path><path d="M117.551 34.3312L110.745 23.9861L110.831 23.8555L110.813 23.8253L117.551 13.1807V11.9951H110.523L106.925 17.6821L103.325 11.9951H96.2969V13.1807L103.037 23.8253L103.019 23.8555L103.103 23.9861L96.2969 34.3312V35.9891H102.883L106.925 29.8178L110.967 35.9891H117.551V34.3312Z" fill="white"></path><path d="M139.046 15.7304C136.862 13.341 133.516 11.9946 129.312 11.9946H120.238V35.9886H129.312C133.526 35.9886 136.866 34.6181 139.046 32.1705C139.618 31.5435 142.44 28.3182 142.244 23.4551C142.072 19.2149 139.714 16.4598 139.046 15.7304ZM129.314 29.7851H126.688V18.2001H129.314C133.032 18.2001 135.182 20.29 135.182 23.8208C135.182 27.6249 133.032 29.7851 129.314 29.7851Z" fill="white"></path><path d="M144.262 23.9919C144.262 16.8621 149.72 11.5488 157.124 11.5488C164.528 11.5488 169.95 16.8621 169.95 23.9919C169.95 31.1218 164.492 36.435 157.124 36.435C149.756 36.435 144.262 31.1218 144.262 23.9919ZM157.122 29.9563C160.704 29.9563 163.228 27.4885 163.228 23.9919C163.228 20.4953 160.704 18.0276 157.122 18.0276C153.54 18.0276 150.982 20.4953 150.982 23.9919C150.982 27.4885 153.54 29.9563 157.122 29.9563Z" fill="white"></path><path d="M35.864 10.1342L27.876 16.4803C27.698 16.621 27.44 16.5908 27.298 16.412L27.292 16.404H27.298C27.298 16.404 17.246 3.62124 17.196 3.56095C15.274 1.22385 12.728 0.112573 10.18 0.00807651C5.06 -0.200916 0 3.66143 0 9.81265V37.257C0 37.9503 0.798 38.3341 1.336 37.9001L9.264 31.5278C9.442 31.3851 9.702 31.4153 9.844 31.5941L19.8 44.2563C21.762 46.7521 24.418 47.9156 27.066 47.994C32.152 48.1467 37.198 44.2944 37.198 38.1854V10.7833C37.198 10.092 36.404 9.70614 35.864 10.1342ZM26.57 34.4497C26.57 34.8415 26.078 35.0123 25.836 34.7049L18.44 25.2882C18.158 24.9305 17.64 24.8682 17.284 25.1515L11.236 29.9563C10.966 30.1714 10.57 29.9784 10.57 29.6328V13.5544C10.57 13.1626 11.062 12.9917 11.304 13.2992L18.7 22.7159C18.982 23.0736 19.5 23.1359 19.856 22.8526L25.904 18.0478C26.174 17.8327 26.57 18.0257 26.57 18.3713V34.4497Z" fill="#6CCA98"></path><path d="M50.1263 43.1089C50.6683 43.1089 51.1043 43.2817 51.4303 43.6253C51.7563 43.9689 51.9203 44.4352 51.9203 45.024V47.8775H51.1163V45.0702C51.1163 44.6924 51.0143 44.399 50.8103 44.192C50.6063 43.985 50.3263 43.8805 49.9683 43.8805C49.5663 43.8805 49.2443 44.0051 48.9963 44.2563C48.7503 44.5075 48.6263 44.8933 48.6263 45.4138V47.8775H47.8203V41.3706H48.6263V43.8986C48.9523 43.3721 49.4523 43.1089 50.1243 43.1089H50.1263Z" fill="white"></path><path d="M56.2849 45.9263C56.3649 46.3423 56.5549 46.6638 56.8549 46.8929C57.1549 47.122 57.5229 47.2365 57.9609 47.2365C58.5709 47.2365 59.0149 47.0095 59.2929 46.5573L59.9769 46.9472C59.5269 47.6485 58.8489 47.9982 57.9409 47.9982C57.2069 47.9982 56.6109 47.7671 56.1509 47.3049C55.6909 46.8427 55.4609 46.2599 55.4609 45.5526C55.4609 44.8452 55.6869 44.2705 56.1369 43.8042C56.5869 43.34 57.1709 43.1069 57.8849 43.1069C58.5629 43.1069 59.1169 43.3481 59.5449 43.8284C59.9729 44.3086 60.1889 44.8874 60.1889 45.5626C60.1889 45.6812 60.1789 45.8017 60.1609 45.9243H56.2849V45.9263ZM57.8849 43.8706C57.4529 43.8706 57.0949 43.9931 56.8109 44.2383C56.5269 44.4835 56.3509 44.811 56.2829 45.219H59.3729C59.3049 44.7789 59.1329 44.4433 58.8549 44.2142C58.5769 43.9851 58.2529 43.8706 57.8829 43.8706H57.8849Z" fill="white"></path><path d="M67.6153 43.2295H68.4193V47.8776H67.6153V47.0778C67.2133 47.6907 66.6313 47.9982 65.8673 47.9982C65.2193 47.9982 64.6673 47.761 64.2113 47.2868C63.7553 46.8125 63.5273 46.2358 63.5273 45.5526C63.5273 44.8693 63.7553 44.2926 64.2113 43.8183C64.6673 43.3441 65.2193 43.1069 65.8673 43.1069C66.6313 43.1069 67.2153 43.4144 67.6153 44.0273V43.2275V43.2295ZM65.9673 47.2185C66.4353 47.2185 66.8273 47.0597 67.1433 46.7402C67.4573 46.4207 67.6153 46.0268 67.6153 45.5546C67.6153 45.0823 67.4573 44.6884 67.1433 44.3689C66.8293 44.0494 66.4373 43.8907 65.9673 43.8907C65.4973 43.8907 65.1153 44.0494 64.8013 44.3689C64.4873 44.6884 64.3293 45.0843 64.3293 45.5546C64.3293 46.0248 64.4873 46.4207 64.8013 46.7402C65.1153 47.0597 65.5053 47.2185 65.9673 47.2185Z" fill="white"></path><path d="M72.3203 47.8775V41.0913H73.1263V47.8775H72.3203Z" fill="white"></path><path d="M79.5497 44.0111H78.3197V46.5311C78.3197 46.7601 78.3637 46.9229 78.4537 47.0194C78.5437 47.1158 78.6797 47.1641 78.8657 47.1681C79.0517 47.1721 79.2797 47.1681 79.5497 47.154V47.8795C78.8457 47.9719 78.3317 47.9156 78.0037 47.7066C77.6757 47.4997 77.5137 47.1078 77.5137 46.5311V44.0111H76.5977V43.2294H77.5137V42.1703L78.3197 41.9292V43.2314H79.5497V44.0131V44.0111Z" fill="white"></path><path d="M85.4857 43.1089C86.0277 43.1089 86.4637 43.2817 86.7897 43.6253C87.1157 43.9689 87.2797 44.4352 87.2797 45.024V47.8775H86.4757V45.0702C86.4757 44.6924 86.3737 44.399 86.1697 44.192C85.9657 43.985 85.6857 43.8805 85.3277 43.8805C84.9257 43.8805 84.6037 44.0051 84.3557 44.2563C84.1097 44.5075 83.9857 44.8933 83.9857 45.4138V47.8775H83.1797V41.3706H83.9857V43.8986C84.3117 43.3721 84.8117 43.1089 85.4837 43.1089H85.4857Z" fill="white"></path><path d="M93.6004 44.0111H92.3704V46.5311C92.3704 46.7601 92.4144 46.9229 92.5044 47.0194C92.5944 47.1158 92.7304 47.1641 92.9164 47.1681C93.1024 47.1721 93.3304 47.1681 93.6004 47.154V47.8795C92.8964 47.9719 92.3824 47.9156 92.0544 47.7066C91.7264 47.4997 91.5644 47.1078 91.5644 46.5311V44.0111H90.6484V43.2294H91.5644V42.1703L92.3704 41.9292V43.2314H93.6004V44.0131V44.0111Z" fill="white"></path><path d="M97.5623 45.9263C97.6423 46.3423 97.8323 46.6638 98.1323 46.8929C98.4323 47.122 98.8003 47.2365 99.2383 47.2365C99.8483 47.2365 100.292 47.0095 100.57 46.5573L101.254 46.9472C100.804 47.6485 100.126 47.9982 99.2183 47.9982C98.4843 47.9982 97.8883 47.7671 97.4283 47.3049C96.9683 46.8427 96.7383 46.2599 96.7383 45.5526C96.7383 44.8452 96.9643 44.2705 97.4143 43.8042C97.8643 43.34 98.4483 43.1069 99.1623 43.1069C99.8403 43.1069 100.394 43.3481 100.822 43.8284C101.25 44.3086 101.466 44.8874 101.466 45.5626C101.466 45.6812 101.456 45.8017 101.438 45.9243H97.5623V45.9263ZM99.1623 43.8706C98.7303 43.8706 98.3723 43.9931 98.0883 44.2383C97.8043 44.4835 97.6283 44.811 97.5603 45.219H100.65C100.582 44.7789 100.41 44.4433 100.132 44.2142C99.8543 43.9851 99.5303 43.8706 99.1603 43.8706H99.1623Z" fill="white"></path><path d="M107.235 47.9981C106.537 47.9981 105.959 47.7649 105.495 47.2967C105.033 46.8285 104.801 46.2477 104.801 45.5544C104.801 44.8612 105.033 44.2784 105.495 43.8122C105.957 43.3439 106.537 43.1108 107.235 43.1108C107.691 43.1108 108.101 43.2214 108.465 43.4404C108.829 43.6615 109.101 43.9569 109.279 44.3286L108.603 44.7185C108.485 44.4713 108.305 44.2724 108.061 44.1237C107.817 43.9749 107.541 43.9006 107.233 43.9006C106.771 43.9006 106.383 44.0593 106.071 44.3748C105.759 44.6903 105.603 45.0842 105.603 45.5565C105.603 46.0287 105.759 46.4125 106.071 46.728C106.383 47.0435 106.769 47.2023 107.233 47.2023C107.541 47.2023 107.819 47.1299 108.065 46.9832C108.311 46.8385 108.499 46.6416 108.629 46.3924L109.313 46.7923C109.115 47.1581 108.831 47.4515 108.461 47.6705C108.091 47.8895 107.681 48.0001 107.231 48.0001L107.235 47.9981Z" fill="white"></path><path d="M115.095 43.1089C115.637 43.1089 116.073 43.2817 116.399 43.6253C116.725 43.9689 116.889 44.4352 116.889 45.024V47.8775H116.085V45.0702C116.085 44.6924 115.983 44.399 115.779 44.192C115.575 43.985 115.295 43.8805 114.937 43.8805C114.535 43.8805 114.213 44.0051 113.965 44.2563C113.719 44.5075 113.595 44.8933 113.595 45.4138V47.8775H112.789V41.3706H113.595V43.8986C113.921 43.3721 114.421 43.1089 115.093 43.1089H115.095Z" fill="white"></path></g><defs><clipPath id="clip0_2093_1060"><rect width="200" height="48" fill="white"></rect></clipPath></defs></svg>